<?xml version="1.0" encoding="utf-8"?>
<!-- Generator: Adobe Illustrator 16.0.0, SVG Export Plug-In . SVG Version: 6.00 Build 0)  -->
<!DOCTYPE svg PUBLIC "-//W3C//DTD SVG 1.1//EN" "http://www.w3.org/Graphics/SVG/1.1/DTD/svg11.dtd">
<svg version="1.1" id="圖層_1" xmlns="http://www.w3.org/2000/svg" xmlns:xlink="http://www.w3.org/1999/xlink" x="0px" y="0px"
	 width="1792px" height="1792px" viewBox="0 0 1792 1792" enable-background="new 0 0 1792 1792" xml:space="preserve">
<path fill="#808080" d="M1376,128c79.333,0,147.166,28.167,203.5,84.5c56.333,56.333,84.5,124.167,84.5,203.5v960
	c0,79.333-28.167,147.167-84.5,203.5c-56.334,56.333-124.167,84.5-203.5,84.5h-188v-595h199l30-232h-229V689
	c0-37.333,7.833-65.333,23.5-84c15.666-18.667,46.166-28,91.5-28l122-1V369c-42-6-101.334-9-178-9
	c-90.667,0-163.167,26.667-217.5,80C975.166,493.333,948,568.667,948,666v171H748v232h200v595H416
	c-79.334,0-147.167-28.167-203.5-84.5c-56.334-56.333-84.5-124.167-84.5-203.5V416c0-79.333,28.166-147.167,84.5-203.5
	C268.833,156.167,336.666,128,416,128H1376z"/>
</svg>
