<?xml version="1.0" encoding="utf-8"?>
<!-- Generator: Adobe Illustrator 16.0.0, SVG Export Plug-In . SVG Version: 6.00 Build 0)  -->
<!DOCTYPE svg PUBLIC "-//W3C//DTD SVG 1.1//EN" "http://www.w3.org/Graphics/SVG/1.1/DTD/svg11.dtd">
<svg version="1.1" id="Capa_1" xmlns="http://www.w3.org/2000/svg" xmlns:xlink="http://www.w3.org/1999/xlink" x="0px" y="0px"
	 width="566.93px" height="566.93px" viewBox="0 0 566.93 566.93" enable-background="new 0 0 566.93 566.93" xml:space="preserve">
<g>
	<g>
		<path fill="#808080" d="M557.407,253.44l-47.893-43.639V65.098c0-9.207-7.465-16.672-16.673-16.672H377.557
			c-9.207,0-16.672,7.464-16.672,16.672v9.272l-57.84-52.704c-11.165-10.175-28.001-10.174-39.161-0.001L9.521,253.441
			c-8.942,8.15-11.898,20.707-7.528,31.989c4.37,11.281,15.011,18.571,27.11,18.571h40.625v232.221
			c0,9.207,7.464,16.672,16.673,16.672h139.421c9.207,0,16.673-7.464,16.673-16.672V395.225h81.939v140.998
			c0,9.207,7.465,16.673,16.673,16.673h139.416c9.207,0,16.672-7.465,16.671-16.673V304.002h40.634
			c12.099,0,22.74-7.291,27.111-18.571C569.307,274.147,566.353,261.591,557.407,253.44z M480.523,270.657
			c-9.207,0-16.673,7.464-16.673,16.673v232.221H357.78V378.553c0-9.208-7.465-16.673-16.672-16.673H225.822
			c-9.207,0-16.672,7.464-16.672,16.673v140.998H103.072V287.33c0-9.208-7.464-16.673-16.672-16.673H40.133L283.466,48.935
			l82.864,75.507c4.881,4.447,11.927,5.593,17.965,2.928c6.039-2.669,9.936-8.65,9.936-15.252V81.77h81.941v135.394
			c0,4.692,1.976,9.164,5.443,12.324l45.181,41.169H480.523z"/>
	</g>
</g>
</svg>
