<?xml version="1.0" encoding="utf-8"?>
<!-- Generator: Adobe Illustrator 16.0.0, SVG Export Plug-In . SVG Version: 6.00 Build 0)  -->
<!DOCTYPE svg PUBLIC "-//W3C//DTD SVG 1.1//EN" "http://www.w3.org/Graphics/SVG/1.1/DTD/svg11.dtd">
<svg version="1.1" id="圖層_1" xmlns="http://www.w3.org/2000/svg" xmlns:xlink="http://www.w3.org/1999/xlink" x="0px" y="0px"
	 width="566.93px" height="566.93px" viewBox="0 0 566.93 566.93" enable-background="new 0 0 566.93 566.93" xml:space="preserve">
<path fill="#808080" d="M413.466,0H153.462C68.842,0,0,68.842,0,153.463v260.008c0,84.616,68.842,153.458,153.462,153.458H413.47
	c84.616,0,153.458-68.842,153.458-153.458V153.463C566.928,68.842,498.086,0,413.466,0z M283.464,438.479
	c-85.477,0-155.015-69.538-155.015-155.015s69.538-155.015,155.015-155.015s155.015,69.538,155.015,155.015
	S368.941,438.479,283.464,438.479z M442.186,165.007c-25.26,0-45.805-20.545-45.805-45.805c0-25.26,20.545-45.809,45.805-45.809
	s45.81,20.549,45.81,45.809C487.995,144.462,467.446,165.007,442.186,165.007z"/>
<path fill="#808080" d="M283.464,161.685c-67.146,0-121.779,54.629-121.779,121.779c0,67.147,54.633,121.78,121.779,121.78
	c67.15,0,121.779-54.633,121.779-121.78C405.243,216.314,350.615,161.685,283.464,161.685z"/>
<path fill="#808080" d="M442.186,106.632c-6.929,0-12.569,5.64-12.569,12.569s5.641,12.569,12.569,12.569
	c6.934,0,12.574-5.636,12.574-12.569C454.76,112.269,449.119,106.632,442.186,106.632z"/>
</svg>
